<mxfile host="Electron" modified="2023-07-31T08:34:42.221Z" agent="Mozilla/5.0 (X11; Linux x86_64) AppleWebKit/537.36 (KHTML, like Gecko) draw.io/21.6.5 Chrome/114.0.5735.243 Electron/25.3.1 Safari/537.36" etag="CYou0hdKVl2G9Vfz5rsP" version="21.6.5" type="device">
  <diagram name="Page-1" id="jLN1ZQcb3Y0rFyo90S0E">
    <mxGraphModel dx="4005" dy="2106" grid="0" gridSize="10" guides="1" tooltips="1" connect="1" arrows="1" fold="1" page="1" pageScale="1" pageWidth="827" pageHeight="1169" background="none" math="0" shadow="0">
      <root>
        <mxCell id="0" />
        <mxCell id="1" parent="0" />
        <mxCell id="-6B5cMe8sq-w_s2lGf64-4" value="saveDroneRtmpFrames" style="swimlane;whiteSpace=wrap;html=1;strokeWidth=3;fillColor=#ffe6cc;strokeColor=#d79b00;" parent="1" vertex="1">
          <mxGeometry x="-1542" y="-565" width="590" height="550" as="geometry" />
        </mxCell>
        <mxCell id="1Ua6vzqnVlYi796qYgmD-35" style="edgeStyle=orthogonalEdgeStyle;rounded=0;orthogonalLoop=1;jettySize=auto;html=1;exitX=0.5;exitY=1;exitDx=0;exitDy=0;entryX=0.5;entryY=0;entryDx=0;entryDy=0;" parent="-6B5cMe8sq-w_s2lGf64-4" source="bVwXBUU_hTWqEYQEKctx-19" target="1Ua6vzqnVlYi796qYgmD-32" edge="1">
          <mxGeometry relative="1" as="geometry" />
        </mxCell>
        <mxCell id="bVwXBUU_hTWqEYQEKctx-19" value="connect to RTMP stream" style="rounded=1;whiteSpace=wrap;html=1;" parent="-6B5cMe8sq-w_s2lGf64-4" vertex="1">
          <mxGeometry x="137" y="37" width="168" height="30" as="geometry" />
        </mxCell>
        <mxCell id="1Ua6vzqnVlYi796qYgmD-34" value="No" style="edgeStyle=orthogonalEdgeStyle;rounded=0;orthogonalLoop=1;jettySize=auto;html=1;exitX=1;exitY=0.5;exitDx=0;exitDy=0;entryX=0;entryY=0.5;entryDx=0;entryDy=0;" parent="-6B5cMe8sq-w_s2lGf64-4" source="1Ua6vzqnVlYi796qYgmD-32" target="1Ua6vzqnVlYi796qYgmD-33" edge="1">
          <mxGeometry relative="1" as="geometry" />
        </mxCell>
        <mxCell id="1Ua6vzqnVlYi796qYgmD-40" value="Yes" style="edgeStyle=orthogonalEdgeStyle;rounded=0;orthogonalLoop=1;jettySize=auto;html=1;exitX=0.5;exitY=1;exitDx=0;exitDy=0;entryX=0.5;entryY=0;entryDx=0;entryDy=0;" parent="-6B5cMe8sq-w_s2lGf64-4" source="1Ua6vzqnVlYi796qYgmD-32" target="1Ua6vzqnVlYi796qYgmD-39" edge="1">
          <mxGeometry relative="1" as="geometry" />
        </mxCell>
        <mxCell id="1Ua6vzqnVlYi796qYgmD-32" value="success" style="rhombus;whiteSpace=wrap;html=1;" parent="-6B5cMe8sq-w_s2lGf64-4" vertex="1">
          <mxGeometry x="172.25" y="87" width="97.5" height="60" as="geometry" />
        </mxCell>
        <mxCell id="1Ua6vzqnVlYi796qYgmD-36" value="Yes" style="edgeStyle=orthogonalEdgeStyle;rounded=0;orthogonalLoop=1;jettySize=auto;html=1;exitX=0.5;exitY=0;exitDx=0;exitDy=0;entryX=1;entryY=0.5;entryDx=0;entryDy=0;" parent="-6B5cMe8sq-w_s2lGf64-4" source="1Ua6vzqnVlYi796qYgmD-33" target="bVwXBUU_hTWqEYQEKctx-19" edge="1">
          <mxGeometry relative="1" as="geometry" />
        </mxCell>
        <mxCell id="1Ua6vzqnVlYi796qYgmD-38" value="No" style="edgeStyle=orthogonalEdgeStyle;rounded=0;orthogonalLoop=1;jettySize=auto;html=1;exitX=1;exitY=0.5;exitDx=0;exitDy=0;entryX=0;entryY=0.5;entryDx=0;entryDy=0;" parent="-6B5cMe8sq-w_s2lGf64-4" source="1Ua6vzqnVlYi796qYgmD-33" target="1Ua6vzqnVlYi796qYgmD-55" edge="1">
          <mxGeometry relative="1" as="geometry">
            <mxPoint x="490" y="117" as="targetPoint" />
          </mxGeometry>
        </mxCell>
        <mxCell id="1Ua6vzqnVlYi796qYgmD-33" value="retries remaining" style="rhombus;whiteSpace=wrap;html=1;" parent="-6B5cMe8sq-w_s2lGf64-4" vertex="1">
          <mxGeometry x="336" y="87" width="91" height="60" as="geometry" />
        </mxCell>
        <mxCell id="1Ua6vzqnVlYi796qYgmD-42" style="edgeStyle=orthogonalEdgeStyle;rounded=0;orthogonalLoop=1;jettySize=auto;html=1;exitX=0.5;exitY=1;exitDx=0;exitDy=0;entryX=0.5;entryY=0;entryDx=0;entryDy=0;" parent="-6B5cMe8sq-w_s2lGf64-4" source="1Ua6vzqnVlYi796qYgmD-39" target="1Ua6vzqnVlYi796qYgmD-41" edge="1">
          <mxGeometry relative="1" as="geometry" />
        </mxCell>
        <mxCell id="1Ua6vzqnVlYi796qYgmD-39" value="read current frame" style="rounded=1;whiteSpace=wrap;html=1;" parent="-6B5cMe8sq-w_s2lGf64-4" vertex="1">
          <mxGeometry x="137" y="180" width="168" height="30" as="geometry" />
        </mxCell>
        <mxCell id="1Ua6vzqnVlYi796qYgmD-51" value="No" style="edgeStyle=orthogonalEdgeStyle;rounded=0;orthogonalLoop=1;jettySize=auto;html=1;exitX=0;exitY=0.5;exitDx=0;exitDy=0;entryX=1;entryY=0.5;entryDx=0;entryDy=0;" parent="-6B5cMe8sq-w_s2lGf64-4" source="1Ua6vzqnVlYi796qYgmD-41" target="1Ua6vzqnVlYi796qYgmD-59" edge="1">
          <mxGeometry relative="1" as="geometry">
            <mxPoint x="105" y="267" as="targetPoint" />
          </mxGeometry>
        </mxCell>
        <mxCell id="t31-Dh1jBJTR5wxdSWJS-3" value="Yes" style="edgeStyle=orthogonalEdgeStyle;rounded=0;orthogonalLoop=1;jettySize=auto;html=1;exitX=0.5;exitY=1;exitDx=0;exitDy=0;entryX=0.5;entryY=0;entryDx=0;entryDy=0;" parent="-6B5cMe8sq-w_s2lGf64-4" source="1Ua6vzqnVlYi796qYgmD-41" target="t31-Dh1jBJTR5wxdSWJS-2" edge="1">
          <mxGeometry relative="1" as="geometry" />
        </mxCell>
        <mxCell id="1Ua6vzqnVlYi796qYgmD-41" value="frame read successfully" style="rhombus;whiteSpace=wrap;html=1;" parent="-6B5cMe8sq-w_s2lGf64-4" vertex="1">
          <mxGeometry x="172.25" y="233" width="97.5" height="74" as="geometry" />
        </mxCell>
        <mxCell id="1Ua6vzqnVlYi796qYgmD-46" style="edgeStyle=orthogonalEdgeStyle;rounded=0;orthogonalLoop=1;jettySize=auto;html=1;exitX=0.5;exitY=1;exitDx=0;exitDy=0;entryX=0.5;entryY=0;entryDx=0;entryDy=0;" parent="-6B5cMe8sq-w_s2lGf64-4" source="1Ua6vzqnVlYi796qYgmD-43" target="1Ua6vzqnVlYi796qYgmD-44" edge="1">
          <mxGeometry relative="1" as="geometry" />
        </mxCell>
        <mxCell id="1Ua6vzqnVlYi796qYgmD-43" value="save frame to HDD" style="rounded=1;whiteSpace=wrap;html=1;" parent="-6B5cMe8sq-w_s2lGf64-4" vertex="1">
          <mxGeometry x="153" y="455" width="136" height="30" as="geometry" />
        </mxCell>
        <mxCell id="1Ua6vzqnVlYi796qYgmD-44" value="save frame info to DB" style="rounded=1;whiteSpace=wrap;html=1;" parent="-6B5cMe8sq-w_s2lGf64-4" vertex="1">
          <mxGeometry x="153" y="506" width="136" height="30" as="geometry" />
        </mxCell>
        <mxCell id="1Ua6vzqnVlYi796qYgmD-53" style="edgeStyle=orthogonalEdgeStyle;rounded=0;orthogonalLoop=1;jettySize=auto;html=1;exitX=1;exitY=0.5;exitDx=0;exitDy=0;entryX=1;entryY=0.25;entryDx=0;entryDy=0;" parent="-6B5cMe8sq-w_s2lGf64-4" source="1Ua6vzqnVlYi796qYgmD-44" target="1Ua6vzqnVlYi796qYgmD-39" edge="1">
          <mxGeometry relative="1" as="geometry">
            <Array as="points">
              <mxPoint x="381" y="521" />
              <mxPoint x="381" y="188" />
            </Array>
            <mxPoint x="296" y="481" as="sourcePoint" />
          </mxGeometry>
        </mxCell>
        <mxCell id="1Ua6vzqnVlYi796qYgmD-57" style="edgeStyle=orthogonalEdgeStyle;rounded=0;orthogonalLoop=1;jettySize=auto;html=1;exitX=0.5;exitY=1;exitDx=0;exitDy=0;entryX=0.5;entryY=0;entryDx=0;entryDy=0;" parent="-6B5cMe8sq-w_s2lGf64-4" source="1Ua6vzqnVlYi796qYgmD-55" target="1Ua6vzqnVlYi796qYgmD-56" edge="1">
          <mxGeometry relative="1" as="geometry" />
        </mxCell>
        <mxCell id="1Ua6vzqnVlYi796qYgmD-55" value="mark session as ended" style="rounded=1;whiteSpace=wrap;html=1;" parent="-6B5cMe8sq-w_s2lGf64-4" vertex="1">
          <mxGeometry x="484" y="99" width="88" height="36" as="geometry" />
        </mxCell>
        <mxCell id="1Ua6vzqnVlYi796qYgmD-56" value="" style="shape=sumEllipse;perimeter=ellipsePerimeter;html=1;backgroundOutline=1;" parent="-6B5cMe8sq-w_s2lGf64-4" vertex="1">
          <mxGeometry x="513" y="162" width="30" height="30" as="geometry" />
        </mxCell>
        <mxCell id="1Ua6vzqnVlYi796qYgmD-59" value="mark session as ended" style="rounded=1;whiteSpace=wrap;html=1;" parent="-6B5cMe8sq-w_s2lGf64-4" vertex="1">
          <mxGeometry x="17" y="252" width="88" height="36" as="geometry" />
        </mxCell>
        <mxCell id="1Ua6vzqnVlYi796qYgmD-60" value="" style="shape=sumEllipse;perimeter=ellipsePerimeter;html=1;backgroundOutline=1;" parent="-6B5cMe8sq-w_s2lGf64-4" vertex="1">
          <mxGeometry x="46" y="317" width="30" height="30" as="geometry" />
        </mxCell>
        <mxCell id="1Ua6vzqnVlYi796qYgmD-58" style="edgeStyle=orthogonalEdgeStyle;rounded=0;orthogonalLoop=1;jettySize=auto;html=1;exitX=0.5;exitY=1;exitDx=0;exitDy=0;entryX=0.5;entryY=0;entryDx=0;entryDy=0;" parent="-6B5cMe8sq-w_s2lGf64-4" source="1Ua6vzqnVlYi796qYgmD-59" target="1Ua6vzqnVlYi796qYgmD-60" edge="1">
          <mxGeometry relative="1" as="geometry" />
        </mxCell>
        <mxCell id="t31-Dh1jBJTR5wxdSWJS-4" value="Yes" style="edgeStyle=orthogonalEdgeStyle;rounded=0;orthogonalLoop=1;jettySize=auto;html=1;exitX=0.5;exitY=1;exitDx=0;exitDy=0;entryX=0.5;entryY=0;entryDx=0;entryDy=0;" parent="-6B5cMe8sq-w_s2lGf64-4" source="t31-Dh1jBJTR5wxdSWJS-2" target="1Ua6vzqnVlYi796qYgmD-43" edge="1">
          <mxGeometry relative="1" as="geometry" />
        </mxCell>
        <mxCell id="t31-Dh1jBJTR5wxdSWJS-5" value="No" style="edgeStyle=orthogonalEdgeStyle;rounded=0;orthogonalLoop=1;jettySize=auto;html=1;exitX=1;exitY=0.5;exitDx=0;exitDy=0;entryX=1;entryY=0.75;entryDx=0;entryDy=0;" parent="-6B5cMe8sq-w_s2lGf64-4" source="t31-Dh1jBJTR5wxdSWJS-2" target="1Ua6vzqnVlYi796qYgmD-39" edge="1">
          <mxGeometry relative="1" as="geometry">
            <Array as="points">
              <mxPoint x="328" y="380" />
              <mxPoint x="328" y="202" />
            </Array>
          </mxGeometry>
        </mxCell>
        <mxCell id="t31-Dh1jBJTR5wxdSWJS-2" value="capture cooldown&amp;nbsp;" style="rhombus;whiteSpace=wrap;html=1;" parent="-6B5cMe8sq-w_s2lGf64-4" vertex="1">
          <mxGeometry x="172.25" y="343" width="97.5" height="74" as="geometry" />
        </mxCell>
        <mxCell id="bVwXBUU_hTWqEYQEKctx-1" value="main" style="swimlane;whiteSpace=wrap;html=1;strokeWidth=3;" parent="1" vertex="1">
          <mxGeometry x="-2150.5" y="-586" width="160" height="98" as="geometry" />
        </mxCell>
        <mxCell id="-6B5cMe8sq-w_s2lGf64-37" value="start api server" style="rounded=1;whiteSpace=wrap;html=1;" parent="bVwXBUU_hTWqEYQEKctx-1" vertex="1">
          <mxGeometry x="20" y="40" width="120" height="40" as="geometry" />
        </mxCell>
        <mxCell id="bVwXBUU_hTWqEYQEKctx-9" value="" style="ellipse;html=1;shape=startState;fillColor=#008a00;strokeColor=#000000;fontColor=#ffffff;strokeWidth=3;" parent="1" vertex="1">
          <mxGeometry x="-2106" y="-696" width="71" height="71" as="geometry" />
        </mxCell>
        <mxCell id="bVwXBUU_hTWqEYQEKctx-10" value="" style="edgeStyle=orthogonalEdgeStyle;html=1;verticalAlign=bottom;endArrow=open;endSize=8;strokeColor=#000500;rounded=0;entryX=0.5;entryY=0;entryDx=0;entryDy=0;exitX=0.503;exitY=0.936;exitDx=0;exitDy=0;exitPerimeter=0;fillColor=#008a00;strokeWidth=3;" parent="1" source="bVwXBUU_hTWqEYQEKctx-9" target="bVwXBUU_hTWqEYQEKctx-1" edge="1">
          <mxGeometry relative="1" as="geometry">
            <mxPoint x="-2200.5" y="-475" as="targetPoint" />
          </mxGeometry>
        </mxCell>
        <mxCell id="QlmAs7cy7dPPL5ENXr90-4" value="&lt;span style=&quot;border-color: var(--border-color);&quot;&gt;&lt;b style=&quot;border-color: var(--border-color);&quot;&gt;&lt;font style=&quot;font-size: 30px;&quot;&gt;LSC Container&lt;/font&gt;&lt;/b&gt;&lt;/span&gt;" style="rounded=0;whiteSpace=wrap;html=1;strokeWidth=2;fillColor=#f5f5f5;fontColor=#333333;strokeColor=#666666;" parent="1" vertex="1">
          <mxGeometry x="-2458" y="-1149" width="775" height="48" as="geometry" />
        </mxCell>
        <mxCell id="QlmAs7cy7dPPL5ENXr90-30" value="api" style="swimlane;whiteSpace=wrap;html=1;strokeWidth=3;" parent="1" vertex="1">
          <mxGeometry x="-2170.5" y="-451" width="200" height="100" as="geometry" />
        </mxCell>
        <mxCell id="QlmAs7cy7dPPL5ENXr90-31" value="/startDroneStreamCapture" style="rounded=1;whiteSpace=wrap;html=1;" parent="QlmAs7cy7dPPL5ENXr90-30" vertex="1">
          <mxGeometry x="20" y="40" width="160" height="40" as="geometry" />
        </mxCell>
        <mxCell id="QlmAs7cy7dPPL5ENXr90-118" value="pip packages" style="swimlane;fontStyle=0;childLayout=stackLayout;horizontal=1;startSize=30;horizontalStack=0;resizeParent=1;resizeParentMax=0;resizeLast=0;collapsible=1;marginBottom=0;whiteSpace=wrap;html=1;fillColor=#f5f5f5;fontColor=#333333;strokeColor=#666666;strokeWidth=2;" parent="1" vertex="1">
          <mxGeometry x="-2429" y="-958" width="277" height="120" as="geometry" />
        </mxCell>
        <mxCell id="QlmAs7cy7dPPL5ENXr90-119" value="&lt;font face=&quot;Courier New&quot;&gt;mysql-connector-python&lt;/font&gt;" style="text;strokeColor=none;fillColor=none;align=left;verticalAlign=middle;spacingLeft=4;spacingRight=4;overflow=hidden;points=[[0,0.5],[1,0.5]];portConstraint=eastwest;rotatable=0;whiteSpace=wrap;html=1;" parent="QlmAs7cy7dPPL5ENXr90-118" vertex="1">
          <mxGeometry y="30" width="277" height="30" as="geometry" />
        </mxCell>
        <mxCell id="QlmAs7cy7dPPL5ENXr90-120" value="&lt;div&gt;flask&lt;/div&gt;" style="text;strokeColor=none;fillColor=none;align=left;verticalAlign=middle;spacingLeft=4;spacingRight=4;overflow=hidden;points=[[0,0.5],[1,0.5]];portConstraint=eastwest;rotatable=0;whiteSpace=wrap;html=1;fontFamily=Courier New;" parent="QlmAs7cy7dPPL5ENXr90-118" vertex="1">
          <mxGeometry y="60" width="277" height="30" as="geometry" />
        </mxCell>
        <mxCell id="1Ua6vzqnVlYi796qYgmD-1" value="&lt;div&gt;opencv-python&lt;/div&gt;" style="text;strokeColor=none;fillColor=none;align=left;verticalAlign=middle;spacingLeft=4;spacingRight=4;overflow=hidden;points=[[0,0.5],[1,0.5]];portConstraint=eastwest;rotatable=0;whiteSpace=wrap;html=1;fontFamily=Courier New;" parent="QlmAs7cy7dPPL5ENXr90-118" vertex="1">
          <mxGeometry y="90" width="277" height="30" as="geometry" />
        </mxCell>
        <mxCell id="QlmAs7cy7dPPL5ENXr90-125" value="apt packages" style="swimlane;fontStyle=0;childLayout=stackLayout;horizontal=1;startSize=30;horizontalStack=0;resizeParent=1;resizeParentMax=0;resizeLast=0;collapsible=1;marginBottom=0;whiteSpace=wrap;html=1;fillColor=#f5f5f5;fontColor=#333333;strokeColor=#666666;strokeWidth=2;" parent="1" vertex="1">
          <mxGeometry x="-2428" y="-1073" width="277" height="90" as="geometry" />
        </mxCell>
        <mxCell id="QlmAs7cy7dPPL5ENXr90-126" value="&lt;font face=&quot;Courier New&quot;&gt;python3&lt;/font&gt;" style="text;strokeColor=none;fillColor=none;align=left;verticalAlign=middle;spacingLeft=4;spacingRight=4;overflow=hidden;points=[[0,0.5],[1,0.5]];portConstraint=eastwest;rotatable=0;whiteSpace=wrap;html=1;" parent="QlmAs7cy7dPPL5ENXr90-125" vertex="1">
          <mxGeometry y="30" width="277" height="30" as="geometry" />
        </mxCell>
        <mxCell id="QlmAs7cy7dPPL5ENXr90-127" value="&lt;div&gt;python3-pip&lt;/div&gt;" style="text;strokeColor=none;fillColor=none;align=left;verticalAlign=middle;spacingLeft=4;spacingRight=4;overflow=hidden;points=[[0,0.5],[1,0.5]];portConstraint=eastwest;rotatable=0;whiteSpace=wrap;html=1;fontFamily=Courier New;" parent="QlmAs7cy7dPPL5ENXr90-125" vertex="1">
          <mxGeometry y="60" width="277" height="30" as="geometry" />
        </mxCell>
        <mxCell id="QlmAs7cy7dPPL5ENXr90-138" value="entrypoint" style="swimlane;fontStyle=0;childLayout=stackLayout;horizontal=1;startSize=30;horizontalStack=0;resizeParent=1;resizeParentMax=0;resizeLast=0;collapsible=1;marginBottom=0;whiteSpace=wrap;html=1;fillColor=#f5f5f5;fontColor=#333333;strokeColor=#666666;strokeWidth=2;" parent="1" vertex="1">
          <mxGeometry x="-2125" y="-1073" width="410" height="60" as="geometry" />
        </mxCell>
        <mxCell id="QlmAs7cy7dPPL5ENXr90-145" value="python /app/main.py" style="text;strokeColor=none;fillColor=none;align=left;verticalAlign=middle;spacingLeft=4;spacingRight=4;overflow=hidden;points=[[0,0.5],[1,0.5]];portConstraint=eastwest;rotatable=0;whiteSpace=wrap;html=1;fontFamily=Courier New;" parent="QlmAs7cy7dPPL5ENXr90-138" vertex="1">
          <mxGeometry y="30" width="410" height="30" as="geometry" />
        </mxCell>
        <mxCell id="1Ua6vzqnVlYi796qYgmD-2" style="edgeStyle=orthogonalEdgeStyle;rounded=0;orthogonalLoop=1;jettySize=auto;html=1;exitX=0.5;exitY=1;exitDx=0;exitDy=0;entryX=0.5;entryY=0;entryDx=0;entryDy=0;" parent="1" source="-6B5cMe8sq-w_s2lGf64-37" target="QlmAs7cy7dPPL5ENXr90-30" edge="1">
          <mxGeometry relative="1" as="geometry" />
        </mxCell>
        <mxCell id="1Ua6vzqnVlYi796qYgmD-4" style="edgeStyle=orthogonalEdgeStyle;rounded=0;orthogonalLoop=1;jettySize=auto;html=1;exitX=0.5;exitY=1;exitDx=0;exitDy=0;entryX=0.5;entryY=0;entryDx=0;entryDy=0;" parent="1" source="QlmAs7cy7dPPL5ENXr90-31" target="1Ua6vzqnVlYi796qYgmD-9" edge="1">
          <mxGeometry relative="1" as="geometry">
            <mxPoint x="-2070.5" y="-321" as="targetPoint" />
          </mxGeometry>
        </mxCell>
        <mxCell id="1Ua6vzqnVlYi796qYgmD-9" value="&lt;b style=&quot;font-size: 20px;&quot;&gt;A&lt;/b&gt;" style="ellipse;whiteSpace=wrap;html=1;aspect=fixed;fontSize=20;labelBackgroundColor=none;fillColor=#f5f5f5;fontColor=#333333;strokeColor=#666666;strokeWidth=2;" parent="1" vertex="1">
          <mxGeometry x="-2094.5" y="-319" width="48" height="48" as="geometry" />
        </mxCell>
        <mxCell id="1Ua6vzqnVlYi796qYgmD-10" value="Yes" style="edgeStyle=orthogonalEdgeStyle;rounded=0;orthogonalLoop=1;jettySize=auto;html=1;exitX=0.5;exitY=1;exitDx=0;exitDy=0;entryX=0.5;entryY=0;entryDx=0;entryDy=0;" parent="1" source="1Ua6vzqnVlYi796qYgmD-11" target="1Ua6vzqnVlYi796qYgmD-12" edge="1">
          <mxGeometry relative="1" as="geometry" />
        </mxCell>
        <mxCell id="1Ua6vzqnVlYi796qYgmD-11" value="request received" style="rhombus;whiteSpace=wrap;html=1;fillColor=#dae8fc;strokeColor=#6c8ebf;strokeWidth=2;" parent="1" vertex="1">
          <mxGeometry x="-1296.5" y="-1077" width="85" height="61" as="geometry" />
        </mxCell>
        <mxCell id="1Ua6vzqnVlYi796qYgmD-12" value="&lt;div style=&quot;line-height: 16px;&quot;&gt;&lt;span style=&quot;background-color: rgb(255, 255, 255);&quot;&gt;startDroneStreamCapture&lt;/span&gt;&lt;br&gt;&lt;/div&gt;" style="swimlane;whiteSpace=wrap;html=1;strokeWidth=3;" parent="1" vertex="1">
          <mxGeometry x="-1435.5" y="-972" width="363" height="379" as="geometry" />
        </mxCell>
        <mxCell id="1Ua6vzqnVlYi796qYgmD-25" value="Yes" style="edgeStyle=orthogonalEdgeStyle;rounded=0;orthogonalLoop=1;jettySize=auto;html=1;exitX=0.5;exitY=1;exitDx=0;exitDy=0;entryX=0.5;entryY=0;entryDx=0;entryDy=0;" parent="1Ua6vzqnVlYi796qYgmD-12" source="1Ua6vzqnVlYi796qYgmD-17" target="1Ua6vzqnVlYi796qYgmD-24" edge="1">
          <mxGeometry relative="1" as="geometry" />
        </mxCell>
        <mxCell id="1Ua6vzqnVlYi796qYgmD-27" value="No" style="edgeStyle=orthogonalEdgeStyle;rounded=0;orthogonalLoop=1;jettySize=auto;html=1;exitX=1;exitY=0.5;exitDx=0;exitDy=0;entryX=0;entryY=0.5;entryDx=0;entryDy=0;" parent="1Ua6vzqnVlYi796qYgmD-12" source="1Ua6vzqnVlYi796qYgmD-17" target="1Ua6vzqnVlYi796qYgmD-20" edge="1">
          <mxGeometry relative="1" as="geometry" />
        </mxCell>
        <mxCell id="1Ua6vzqnVlYi796qYgmD-17" value="thread already running" style="rhombus;whiteSpace=wrap;html=1;" parent="1Ua6vzqnVlYi796qYgmD-12" vertex="1">
          <mxGeometry x="31.5" y="210" width="117.5" height="80" as="geometry" />
        </mxCell>
        <mxCell id="1Ua6vzqnVlYi796qYgmD-21" style="edgeStyle=orthogonalEdgeStyle;rounded=0;orthogonalLoop=1;jettySize=auto;html=1;exitX=0.5;exitY=1;exitDx=0;exitDy=0;entryX=0.5;entryY=0;entryDx=0;entryDy=0;" parent="1Ua6vzqnVlYi796qYgmD-12" source="1Ua6vzqnVlYi796qYgmD-18" target="1Ua6vzqnVlYi796qYgmD-19" edge="1">
          <mxGeometry relative="1" as="geometry" />
        </mxCell>
        <mxCell id="1Ua6vzqnVlYi796qYgmD-18" value="retrieve active live session" style="rounded=1;whiteSpace=wrap;html=1;" parent="1Ua6vzqnVlYi796qYgmD-12" vertex="1">
          <mxGeometry x="15.25" y="42" width="150" height="40" as="geometry" />
        </mxCell>
        <mxCell id="1Ua6vzqnVlYi796qYgmD-23" value="Yes" style="edgeStyle=orthogonalEdgeStyle;rounded=0;orthogonalLoop=1;jettySize=auto;html=1;exitX=0.5;exitY=1;exitDx=0;exitDy=0;entryX=0.5;entryY=0;entryDx=0;entryDy=0;" parent="1Ua6vzqnVlYi796qYgmD-12" source="1Ua6vzqnVlYi796qYgmD-19" target="1Ua6vzqnVlYi796qYgmD-17" edge="1">
          <mxGeometry relative="1" as="geometry" />
        </mxCell>
        <mxCell id="1Ua6vzqnVlYi796qYgmD-26" value="No" style="edgeStyle=orthogonalEdgeStyle;rounded=0;orthogonalLoop=1;jettySize=auto;html=1;exitX=1;exitY=0.5;exitDx=0;exitDy=0;entryX=0.5;entryY=0;entryDx=0;entryDy=0;" parent="1Ua6vzqnVlYi796qYgmD-12" source="1Ua6vzqnVlYi796qYgmD-19" target="1Ua6vzqnVlYi796qYgmD-20" edge="1">
          <mxGeometry relative="1" as="geometry" />
        </mxCell>
        <mxCell id="1Ua6vzqnVlYi796qYgmD-19" value="exists" style="rhombus;whiteSpace=wrap;html=1;" parent="1Ua6vzqnVlYi796qYgmD-12" vertex="1">
          <mxGeometry x="41.5" y="112" width="97.5" height="60" as="geometry" />
        </mxCell>
        <mxCell id="1Ua6vzqnVlYi796qYgmD-29" style="edgeStyle=orthogonalEdgeStyle;rounded=0;orthogonalLoop=1;jettySize=auto;html=1;exitX=0.5;exitY=1;exitDx=0;exitDy=0;entryX=0.5;entryY=0;entryDx=0;entryDy=0;" parent="1Ua6vzqnVlYi796qYgmD-12" source="1Ua6vzqnVlYi796qYgmD-20" target="1Ua6vzqnVlYi796qYgmD-28" edge="1">
          <mxGeometry relative="1" as="geometry" />
        </mxCell>
        <mxCell id="1Ua6vzqnVlYi796qYgmD-20" value="deactivate sessions and create new" style="rounded=1;whiteSpace=wrap;html=1;" parent="1Ua6vzqnVlYi796qYgmD-12" vertex="1">
          <mxGeometry x="191.5" y="230" width="150" height="40" as="geometry" />
        </mxCell>
        <mxCell id="1Ua6vzqnVlYi796qYgmD-24" value="" style="shape=sumEllipse;perimeter=ellipsePerimeter;html=1;backgroundOutline=1;" parent="1Ua6vzqnVlYi796qYgmD-12" vertex="1">
          <mxGeometry x="75.5" y="330" width="30" height="30" as="geometry" />
        </mxCell>
        <mxCell id="1Ua6vzqnVlYi796qYgmD-28" value="start stream capture" style="rounded=1;whiteSpace=wrap;html=1;" parent="1Ua6vzqnVlYi796qYgmD-12" vertex="1">
          <mxGeometry x="191.5" y="323" width="150" height="40" as="geometry" />
        </mxCell>
        <mxCell id="1Ua6vzqnVlYi796qYgmD-14" style="edgeStyle=orthogonalEdgeStyle;rounded=0;orthogonalLoop=1;jettySize=auto;html=1;exitX=0.5;exitY=1;exitDx=0;exitDy=0;entryX=0.5;entryY=0;entryDx=0;entryDy=0;" parent="1" source="1Ua6vzqnVlYi796qYgmD-15" target="1Ua6vzqnVlYi796qYgmD-11" edge="1">
          <mxGeometry relative="1" as="geometry" />
        </mxCell>
        <mxCell id="1Ua6vzqnVlYi796qYgmD-15" value="&lt;b style=&quot;font-size: 20px;&quot;&gt;A&lt;/b&gt;" style="ellipse;whiteSpace=wrap;html=1;aspect=fixed;fontSize=20;labelBackgroundColor=none;fillColor=#f5f5f5;fontColor=#333333;strokeColor=#666666;strokeWidth=2;" parent="1" vertex="1">
          <mxGeometry x="-1278" y="-1148" width="48" height="48" as="geometry" />
        </mxCell>
        <mxCell id="1Ua6vzqnVlYi796qYgmD-52" style="edgeStyle=orthogonalEdgeStyle;rounded=0;orthogonalLoop=1;jettySize=auto;html=1;exitX=0.5;exitY=1;exitDx=0;exitDy=0;entryX=0.5;entryY=0;entryDx=0;entryDy=0;" parent="1" source="1Ua6vzqnVlYi796qYgmD-28" target="-6B5cMe8sq-w_s2lGf64-4" edge="1">
          <mxGeometry relative="1" as="geometry">
            <Array as="points">
              <mxPoint x="-1169" y="-580" />
              <mxPoint x="-1247" y="-580" />
            </Array>
          </mxGeometry>
        </mxCell>
      </root>
    </mxGraphModel>
  </diagram>
</mxfile>
